<svg xmlns="http://www.w3.org/2000/svg" xmlns:xlink="http://www.w3.org/1999/xlink" width="1600" height="1200"><defs><radialGradient xlink:href="#a" id="i" gradientUnits="userSpaceOnUse" gradientTransform="matrix(.00286 1.5824 -3.02485 .00546 1440.375 -266.915)" cx="558.868" cy="228.768" fx="558.868" fy="228.768" r="250"/><linearGradient id="a"><stop offset="0" stop-color="#fff"/><stop offset="1"/></linearGradient><radialGradient xlink:href="#a" id="h" cx="358.086" cy="87.49" fx="358.086" fy="87.49" r="250" gradientTransform="matrix(4.35894 0 0 1.49662 -794.549 176.545)" gradientUnits="userSpaceOnUse"/><radialGradient xlink:href="#b" id="g" gradientUnits="userSpaceOnUse" gradientTransform="matrix(.00964 7.37114 -3.9877 .00521 2234.304 -1755.508)" cx="360.119" cy="366.469" fx="360.119" fy="366.469" r="32.547"/><linearGradient id="b"><stop offset="0"/><stop offset="1" stop-color="#f9f9f9"/></linearGradient><radialGradient xlink:href="#a" id="f" cx="360.119" cy="366.469" fx="360.119" fy="366.469" r="35.86" gradientTransform="matrix(21.94056 .04738 -.00831 3.50189 -7121.766 -404.847)" gradientUnits="userSpaceOnUse"/><radialGradient xlink:href="#c" id="e" gradientUnits="userSpaceOnUse" gradientTransform="matrix(1.42414 -.02812 .00758 .49694 -157.775 216.464)" cx="364.665" cy="409.905" fx="364.665" fy="409.905" r="41.416"/><linearGradient id="c"><stop offset="0" stop-color="#e6e6e6"/><stop offset="1" stop-color="#e6e6e6" stop-opacity="0"/></linearGradient><radialGradient xlink:href="#c" id="d" cx="364.665" cy="409.905" fx="364.665" fy="409.905" r="41.416" gradientTransform="matrix(1.42414 -.02812 .00758 .49694 -157.775 216.464)" gradientUnits="userSpaceOnUse"/></defs><path d="M1113.417 1002.329a327.875 80.63 0 1 1-655.75 0 327.875 80.63 0 1 1 655.75 0z" fill="#ccc"/><path d="M1113.447 999.18a328.13 74.771 0 1 1-656.261 0 328.13 74.771 0 1 1 656.26 0z" fill="#1a1a1a"/><path d="M406.081 409.905a41.416 8.081 0 1 1-82.832 0 41.416 8.081 0 1 1 82.832 0z" transform="matrix(2.83852 0 0 2.49437 -258.702 -15.945)" fill="url(#d)"/><path transform="matrix(2.65938 0 0 2.05342 -193.376 164.802)" d="M406.081 409.905a41.416 8.081 0 1 1-82.832 0 41.416 8.081 0 1 1 82.832 0z" fill="url(#e)"/><rect width="178.898" height="221.122" x="686.959" y="784.986" ry="0" rx="10.102" fill="url(#f)"/><rect rx="10.102" ry="0" y="795.695" x="695.223" height="210.394" width="162.37" fill="url(#g)"/><rect width="154.181" height="204.681" x="699.317" y="801.702" ry="0" rx="10.102" opacity=".973"/><rect rx="19.193" width="1247.185" height="748.311" x="152.815" y="87.032" ry="19.193" fill="url(#h)"/><rect rx="12.122" y="103.661" x="180.532" height="715.051" width="1191.751" ry="12.122" fill="url(#i)"/><rect width="1151.436" height="690.862" x="200.69" y="115.756" ry="10.102" rx="10.102" fill="#e6e6e6"/><path d="M200.543 795.065c376.055-361.697 1077.807-454.978 1143.21-673.856l-1124.09-5.494c-7.71 3.379-15.693 5.394-19.953 26.02z" opacity=".417" fill="#fff"/></svg>