<?xml version="1.0" encoding="utf-8"?>
<!-- Generator: Adobe Illustrator 19.1.1, SVG Export Plug-In . SVG Version: 6.00 Build 0)  -->
<svg version="1.1" id="Layer_1" xmlns="http://www.w3.org/2000/svg" xmlns:xlink="http://www.w3.org/1999/xlink" x="0px" y="0px"
	 viewBox="0 0 187 164" style="enable-background:new 0 0 187 164;" xml:space="preserve">
<style type="text/css">
	.st0{fill:#515254;}
	.st1{fill:#1B75BB;}
	.st2{fill:#26A9E0;}
	.st3{fill:#231F20;}
	.st4{opacity:0.2;}
	.st5{fill:#717275;}
</style>
<g>
	<path class="st0" d="M126.3,129.1c0,2.3-1.9,4.2-4.2,4.2h-56c-2.3,0-4.2-1.9-4.2-4.2V35.4c0-2.3,1.9-4.2,4.2-4.2h56
		c2.3,0,4.2,1.9,4.2,4.2V129.1z"/>
	<path class="st1" d="M123.3,122.6c0,1.2-0.9,2.1-2.1,2.1H67.1c-1.2,0-2.1-0.9-2.1-2.1V41c0-1.2,0.9-2.1,2.1-2.1h54.1
		c1.2,0,2.1,0.9,2.1,2.1V122.6z"/>
	<path class="st2" d="M79.8,51.9c0,1-0.8,1.7-1.7,1.7h-4.5c-1,0-1.7-0.8-1.7-1.7v-4.5c0-1,0.8-1.7,1.7-1.7H78c1,0,1.7,0.8,1.7,1.7
		V51.9z"/>
	<path class="st2" d="M115.6,51.9c0,1-0.8,1.7-1.7,1.7h-4.5c-1,0-1.7-0.8-1.7-1.7v-4.5c0-1,0.8-1.7,1.7-1.7h4.5c1,0,1.7,0.8,1.7,1.7
		V51.9z"/>
	<path class="st2" d="M103.6,51.9c0,1-0.8,1.7-1.7,1.7h-4.5c-1,0-1.7-0.8-1.7-1.7v-4.5c0-1,0.8-1.7,1.7-1.7h4.5c1,0,1.7,0.8,1.7,1.7
		V51.9z"/>
	<path class="st2" d="M91.7,51.9c0,1-0.8,1.7-1.7,1.7h-4.5c-1,0-1.7-0.8-1.7-1.7v-4.5c0-1,0.8-1.7,1.7-1.7H90c1,0,1.7,0.8,1.7,1.7
		V51.9z"/>
	<path class="st2" d="M79.8,65.1c0,1-0.8,1.7-1.7,1.7h-4.5c-1,0-1.7-0.8-1.7-1.7v-4.5c0-1,0.8-1.7,1.7-1.7H78c1,0,1.7,0.8,1.7,1.7
		V65.1z"/>
	<path class="st2" d="M115.6,65.1c0,1-0.8,1.7-1.7,1.7h-4.5c-1,0-1.7-0.8-1.7-1.7v-4.5c0-1,0.8-1.7,1.7-1.7h4.5c1,0,1.7,0.8,1.7,1.7
		V65.1z"/>
	<path class="st2" d="M103.6,65.1c0,1-0.8,1.7-1.7,1.7h-4.5c-1,0-1.7-0.8-1.7-1.7v-4.5c0-1,0.8-1.7,1.7-1.7h4.5c1,0,1.7,0.8,1.7,1.7
		V65.1z"/>
	<path class="st2" d="M91.7,65.1c0,1-0.8,1.7-1.7,1.7h-4.5c-1,0-1.7-0.8-1.7-1.7v-4.5c0-1,0.8-1.7,1.7-1.7H90c1,0,1.7,0.8,1.7,1.7
		V65.1z"/>
	<path class="st2" d="M79.8,78.3c0,1-0.8,1.7-1.7,1.7h-4.5c-1,0-1.7-0.8-1.7-1.7v-4.5c0-1,0.8-1.7,1.7-1.7H78c1,0,1.7,0.8,1.7,1.7
		V78.3z"/>
	<path class="st2" d="M115.6,78.3c0,1-0.8,1.7-1.7,1.7h-4.5c-1,0-1.7-0.8-1.7-1.7v-4.5c0-1,0.8-1.7,1.7-1.7h4.5c1,0,1.7,0.8,1.7,1.7
		V78.3z"/>
	<path class="st2" d="M103.6,78.3c0,1-0.8,1.7-1.7,1.7h-4.5c-1,0-1.7-0.8-1.7-1.7v-4.5c0-1,0.8-1.7,1.7-1.7h4.5c1,0,1.7,0.8,1.7,1.7
		V78.3z"/>
	<path class="st2" d="M91.7,78.3c0,1-0.8,1.7-1.7,1.7h-4.5c-1,0-1.7-0.8-1.7-1.7v-4.5c0-1,0.8-1.7,1.7-1.7H90c1,0,1.7,0.8,1.7,1.7
		V78.3z"/>
	<path class="st2" d="M79.8,91.5c0,1-0.8,1.7-1.7,1.7h-4.5c-1,0-1.7-0.8-1.7-1.7V87c0-1,0.8-1.7,1.7-1.7H78c1,0,1.7,0.8,1.7,1.7
		V91.5z"/>
	<path class="st2" d="M103.6,91.5c0,1-0.8,1.7-1.7,1.7h-4.5c-1,0-1.7-0.8-1.7-1.7V87c0-1,0.8-1.7,1.7-1.7h4.5c1,0,1.7,0.8,1.7,1.7
		V91.5z"/>
	<path class="st2" d="M91.7,91.5c0,1-0.8,1.7-1.7,1.7h-4.5c-1,0-1.7-0.8-1.7-1.7V87c0-1,0.8-1.7,1.7-1.7H90c1,0,1.7,0.8,1.7,1.7
		V91.5z"/>
	<circle class="st3" cx="104.9" cy="35.2" r="1.3"/>
	<circle class="st3" cx="117.1" cy="35.2" r="1.3"/>
	<g class="st4">
		<path d="M66.2,133.3h56c2.3,0,4.2-1.9,4.2-4.2V54.4L62,118.7v10.4C62,131.4,63.9,133.3,66.2,133.3z"/>
	</g>
	<path class="st5" d="M100.1,129.2c0,0.9-0.7,1.7-1.7,1.7h-8.6c-0.9,0-1.7-0.7-1.7-1.7l0,0c0-0.9,0.7-1.7,1.7-1.7h8.6
		C99.4,127.5,100.1,128.3,100.1,129.2L100.1,129.2z"/>
</g>
</svg>
