<?xml version="1.0" encoding="utf-8"?>
<!-- Generator: Adobe Illustrator 19.1.1, SVG Export Plug-In . SVG Version: 6.00 Build 0)  -->
<svg version="1.1" id="Layer_1" xmlns="http://www.w3.org/2000/svg" xmlns:xlink="http://www.w3.org/1999/xlink" x="0px" y="0px"
	 viewBox="0 0 187 164" style="enable-background:new 0 0 187 164;" xml:space="preserve">
<style type="text/css">
	.st0{fill:#383838;}
	.st1{fill:#515254;}
	.st2{fill:#1B75BB;}
	.st3{fill:#231F20;}
	.st4{fill:#26A9E0;}
	.st5{opacity:0.2;}
	.st6{fill:#717275;}
</style>
<g>
	<rect x="29" y="25.5" class="st0" width="9.8" height="0.9"/>
	<path class="st1" d="M176,34.7c0-4.6-3.8-8.4-8.4-8.4h-22.8H42.6H19.8c-4.6,0-8.4,3.8-8.4,8.4c0,0-2.1,25.2-2.1,47.8
		c0,16.4,2.1,47.8,2.1,47.8c0,4.6,3.8,8.4,8.4,8.4h22.8h102.1h22.8c4.6,0,8.4-3.8,8.4-8.4c0,0,2.1-25.2,2.1-47.8
		C178,66.1,176,34.7,176,34.7z"/>
	<path class="st2" d="M170.5,125.6c0,2.4-2,4.4-4.4,4.4H21.3c-2.4,0-4.4-2-4.4-4.4V38.3c0-2.4,2-4.4,4.4-4.4h144.8
		c2.4,0,4.4,2,4.4,4.4V125.6z"/>
	<g>
		<path class="st3" d="M99,30.2c0,0.6-0.5,1.1-1.1,1.1h-15c-0.6,0-1.1-0.5-1.1-1.1l0,0c0-0.6,0.5-1.1,1.1-1.1h15
			C98.5,29.1,99,29.6,99,30.2L99,30.2z"/>
		<circle class="st3" cx="101.4" cy="30.3" r="1"/>
		<circle class="st3" cx="104.4" cy="30.3" r="1"/>
	</g>
	<path class="st4" d="M41.7,53.7c0,1.1-0.9,1.9-1.9,1.9h-4.9c-1.1,0-1.9-0.9-1.9-1.9v-4.9c0-1.1,0.9-1.9,1.9-1.9h4.9
		c1.1,0,1.9,0.9,1.9,1.9V53.7z"/>
	<path class="st4" d="M58,53.7c0,1.1-0.9,1.9-1.9,1.9h-4.9c-1.1,0-1.9-0.9-1.9-1.9v-4.9c0-1.1,0.9-1.9,1.9-1.9h4.9
		c1.1,0,1.9,0.9,1.9,1.9V53.7z"/>
	<path class="st4" d="M74.4,53.7c0,1.1-0.9,1.9-1.9,1.9h-4.9c-1.1,0-1.9-0.9-1.9-1.9v-4.9c0-1.1,0.9-1.9,1.9-1.9h4.9
		c1.1,0,1.9,0.9,1.9,1.9V53.7z"/>
	<path class="st4" d="M90.7,53.7c0,1.1-0.9,1.9-1.9,1.9h-4.9c-1.1,0-1.9-0.9-1.9-1.9v-4.9c0-1.1,0.9-1.9,1.9-1.9h4.9
		c1.1,0,1.9,0.9,1.9,1.9V53.7z"/>
	<path class="st4" d="M107.1,53.7c0,1.1-0.9,1.9-1.9,1.9h-4.9c-1.1,0-1.9-0.9-1.9-1.9v-4.9c0-1.1,0.9-1.9,1.9-1.9h4.9
		c1.1,0,1.9,0.9,1.9,1.9V53.7z"/>
	<path class="st4" d="M123.4,53.7c0,1.1-0.9,1.9-1.9,1.9h-4.9c-1.1,0-1.9-0.9-1.9-1.9v-4.9c0-1.1,0.9-1.9,1.9-1.9h4.9
		c1.1,0,1.9,0.9,1.9,1.9V53.7z"/>
	<path class="st4" d="M139.8,53.7c0,1.1-0.9,1.9-1.9,1.9h-4.9c-1.1,0-1.9-0.9-1.9-1.9v-4.9c0-1.1,0.9-1.9,1.9-1.9h4.9
		c1.1,0,1.9,0.9,1.9,1.9V53.7z"/>
	<path class="st4" d="M156.1,53.7c0,1.1-0.9,1.9-1.9,1.9h-4.9c-1.1,0-1.9-0.9-1.9-1.9v-4.9c0-1.1,0.9-1.9,1.9-1.9h4.9
		c1.1,0,1.9,0.9,1.9,1.9V53.7z"/>
	<path class="st4" d="M41.7,68.7c0,1.1-0.9,1.9-1.9,1.9h-4.9c-1.1,0-1.9-0.9-1.9-1.9v-4.9c0-1.1,0.9-1.9,1.9-1.9h4.9
		c1.1,0,1.9,0.9,1.9,1.9V68.7z"/>
	<path class="st4" d="M58,68.7c0,1.1-0.9,1.9-1.9,1.9h-4.9c-1.1,0-1.9-0.9-1.9-1.9v-4.9c0-1.1,0.9-1.9,1.9-1.9h4.9
		c1.1,0,1.9,0.9,1.9,1.9V68.7z"/>
	<path class="st4" d="M74.4,68.7c0,1.1-0.9,1.9-1.9,1.9h-4.9c-1.1,0-1.9-0.9-1.9-1.9v-4.9c0-1.1,0.9-1.9,1.9-1.9h4.9
		c1.1,0,1.9,0.9,1.9,1.9V68.7z"/>
	<path class="st4" d="M90.7,68.7c0,1.1-0.9,1.9-1.9,1.9h-4.9c-1.1,0-1.9-0.9-1.9-1.9v-4.9c0-1.1,0.9-1.9,1.9-1.9h4.9
		c1.1,0,1.9,0.9,1.9,1.9V68.7z"/>
	<path class="st4" d="M107.1,68.7c0,1.1-0.9,1.9-1.9,1.9h-4.9c-1.1,0-1.9-0.9-1.9-1.9v-4.9c0-1.1,0.9-1.9,1.9-1.9h4.9
		c1.1,0,1.9,0.9,1.9,1.9V68.7z"/>
	<path class="st4" d="M123.4,68.7c0,1.1-0.9,1.9-1.9,1.9h-4.9c-1.1,0-1.9-0.9-1.9-1.9v-4.9c0-1.1,0.9-1.9,1.9-1.9h4.9
		c1.1,0,1.9,0.9,1.9,1.9V68.7z"/>
	<path class="st4" d="M139.8,68.7c0,1.1-0.9,1.9-1.9,1.9h-4.9c-1.1,0-1.9-0.9-1.9-1.9v-4.9c0-1.1,0.9-1.9,1.9-1.9h4.9
		c1.1,0,1.9,0.9,1.9,1.9V68.7z"/>
	<path class="st4" d="M156.1,68.7c0,1.1-0.9,1.9-1.9,1.9h-4.9c-1.1,0-1.9-0.9-1.9-1.9v-4.9c0-1.1,0.9-1.9,1.9-1.9h4.9
		c1.1,0,1.9,0.9,1.9,1.9V68.7z"/>
	<path class="st4" d="M41.7,83.7c0,1.1-0.9,1.9-1.9,1.9h-4.9c-1.1,0-1.9-0.9-1.9-1.9v-4.9c0-1.1,0.9-1.9,1.9-1.9h4.9
		c1.1,0,1.9,0.9,1.9,1.9V83.7z"/>
	<path class="st4" d="M58,83.7c0,1.1-0.9,1.9-1.9,1.9h-4.9c-1.1,0-1.9-0.9-1.9-1.9v-4.9c0-1.1,0.9-1.9,1.9-1.9h4.9
		c1.1,0,1.9,0.9,1.9,1.9V83.7z"/>
	<path class="st4" d="M74.4,83.7c0,1.1-0.9,1.9-1.9,1.9h-4.9c-1.1,0-1.9-0.9-1.9-1.9v-4.9c0-1.1,0.9-1.9,1.9-1.9h4.9
		c1.1,0,1.9,0.9,1.9,1.9V83.7z"/>
	<path class="st4" d="M90.7,83.7c0,1.1-0.9,1.9-1.9,1.9h-4.9c-1.1,0-1.9-0.9-1.9-1.9v-4.9c0-1.1,0.9-1.9,1.9-1.9h4.9
		c1.1,0,1.9,0.9,1.9,1.9V83.7z"/>
	<path class="st4" d="M107.1,83.7c0,1.1-0.9,1.9-1.9,1.9h-4.9c-1.1,0-1.9-0.9-1.9-1.9v-4.9c0-1.1,0.9-1.9,1.9-1.9h4.9
		c1.1,0,1.9,0.9,1.9,1.9V83.7z"/>
	<path class="st4" d="M123.4,83.7c0,1.1-0.9,1.9-1.9,1.9h-4.9c-1.1,0-1.9-0.9-1.9-1.9v-4.9c0-1.1,0.9-1.9,1.9-1.9h4.9
		c1.1,0,1.9,0.9,1.9,1.9V83.7z"/>
	<path class="st4" d="M123.4,83.7c0,1.1-0.9,1.9-1.9,1.9h-4.9c-1.1,0-1.9-0.9-1.9-1.9v-4.9c0-1.1,0.9-1.9,1.9-1.9h4.9
		c1.1,0,1.9,0.9,1.9,1.9V83.7z"/>
	<path class="st4" d="M139.8,68.7c0,1.1-0.9,1.9-1.9,1.9h-4.9c-1.1,0-1.9-0.9-1.9-1.9v-4.9c0-1.1,0.9-1.9,1.9-1.9h4.9
		c1.1,0,1.9,0.9,1.9,1.9V68.7z"/>
	<path class="st4" d="M147.4,48.7c0-1.1,0.9-1.9,1.9-1.9h4.9c1.1,0,1.9,0.9,1.9,1.9v4.9c0,1.1-0.9,1.9-1.9,1.9h-4.9
		c-1.1,0-1.9-0.9-1.9-1.9V48.7z"/>
	<path class="st4" d="M147.4,63.7c0-1.1,0.9-1.9,1.9-1.9h4.9c1.1,0,1.9,0.9,1.9,1.9v4.9c0,1.1-0.9,1.9-1.9,1.9h-4.9
		c-1.1,0-1.9-0.9-1.9-1.9V63.7z"/>
	<path class="st4" d="M149.3,55.6h4.9c1.1,0,1.9-0.9,1.9-1.9v-4.9c0-1.1-0.9-1.9-1.9-1.9h-4.9c-1.1,0-1.9,0.9-1.9,1.9v4.9
		C147.4,54.7,148.2,55.6,149.3,55.6z"/>
	<path class="st4" d="M137.9,61.8h-4.9c-1.1,0-1.9,0.9-1.9,1.9v4.9c0,1.1,0.9,1.9,1.9,1.9h4.9c1.1,0,1.9-0.9,1.9-1.9v-4.9
		C139.8,62.7,138.9,61.8,137.9,61.8z"/>
	<path class="st4" d="M149.3,70.6h4.9c1.1,0,1.9-0.9,1.9-1.9v-4.9c0-1.1-0.9-1.9-1.9-1.9h-4.9c-1.1,0-1.9,0.9-1.9,1.9v4.9
		C147.4,69.7,148.2,70.6,149.3,70.6z"/>
	<path class="st4" d="M107.1,83.7v-4.9c-2.2,2.3-4.5,4.5-6.8,6.8h4.9C106.2,85.6,107.1,84.7,107.1,83.7z"/>
	<path class="st4" d="M121.5,76.8h-4.9c-1.1,0-1.9,0.9-1.9,1.9v4.9c0,1.1,0.9,1.9,1.9,1.9h4.9c1.1,0,1.9-0.9,1.9-1.9v-4.9
		C123.4,77.7,122.6,76.8,121.5,76.8z"/>
	<path class="st5" d="M175.3,34.7c0-4.6-3.8-8.4-8.4-8.4h-17.6L36.8,138.8H42h102.1h22.8c4.6,0,8.4-3.8,8.4-8.4
		c0,0,2.1-25.2,2.1-47.8C177.4,66.1,175.3,34.7,175.3,34.7z"/>
	<path class="st6" d="M101.3,134c0,0.9-0.8,1.7-1.7,1.7h-8.7c-0.9,0-1.7-0.8-1.7-1.7l0,0c0-0.9,0.8-1.7,1.7-1.7h8.7
		C100.5,132.3,101.3,133,101.3,134L101.3,134z"/>
</g>
</svg>
