<?xml version="1.0" encoding="utf-8"?>
<!-- Generator: Adobe Illustrator 19.1.0, SVG Export Plug-In . SVG Version: 6.00 Build 0)  -->
<svg version="1.1" id="Layer_1" xmlns="http://www.w3.org/2000/svg" xmlns:xlink="http://www.w3.org/1999/xlink" x="0px" y="0px"
	 viewBox="-327 216.3 187 164" style="enable-background:new -327 216.3 187 164;" xml:space="preserve">
<style type="text/css">
	.st0{fill:#383838;}
	.st1{fill:#515254;}
	.st2{fill:#1B75BB;}
	.st3{fill:#231F20;}
	.st4{fill:#26A9E0;}
	.st5{opacity:0.2;enable-background:new    ;}
	.st6{fill:#717275;}
	.st7{fill:#A2A2A3;}
</style>
<g>
	<rect x="-297.6" y="221.4" class="st0" width="9.6" height="0.9"/>
	<path class="st1" d="M-153.9,230.4c0-4.5-3.7-8.2-8.2-8.2h-22.3h-99.9h-22.3c-4.5,0-8.2,3.7-8.2,8.2c0,0-0.1,24.6-0.1,46.7
		c0,16,0.1,46.7,0.1,46.7c0,4.5,3.7,8.2,8.2,8.2h22.3h99.8h22.3c4.5,0,8.2-3.7,8.2-8.2c0,0,0.1-24.6,0.1-46.7
		C-153.9,261.1-153.9,230.4-153.9,230.4z"/>
	<path class="st2" d="M-159.3,319.3c0,2.3-2,4.3-4.3,4.3h-141.5c-2.3,0-4.3-2-4.3-4.3v-85.3c0-2.3,2-4.3,4.3-4.3h141.5
		c2.3,0,4.3,2,4.3,4.3V319.3z"/>
	<g>
		<path class="st3" d="M-229.1,226c0,0.6-0.5,1.1-1.1,1.1h-14.7c-0.6,0-1.1-0.5-1.1-1.1l0,0c0-0.6,0.5-1.1,1.1-1.1h14.7
			C-229.6,225-229.1,225.4-229.1,226L-229.1,226z"/>
		<circle class="st3" cx="-226.8" cy="226.1" r="1"/>
		<circle class="st3" cx="-223.9" cy="226.1" r="1"/>
	</g>
	<path class="st4" d="M-285.1,249c0,1.1-0.9,1.9-1.9,1.9h-4.8c-1.1,0-1.9-0.9-1.9-1.9v-4.8c0-1.1,0.9-1.9,1.9-1.9h4.8
		c1.1,0,1.9,0.9,1.9,1.9V249z"/>
	<path class="st4" d="M-269.2,249c0,1.1-0.9,1.9-1.9,1.9h-4.8c-1.1,0-1.9-0.9-1.9-1.9v-4.8c0-1.1,0.9-1.9,1.9-1.9h4.8
		c1.1,0,1.9,0.9,1.9,1.9V249z"/>
	<path class="st4" d="M-253.2,249c0,1.1-0.9,1.9-1.9,1.9h-4.8c-1.1,0-1.9-0.9-1.9-1.9v-4.8c0-1.1,0.9-1.9,1.9-1.9h4.8
		c1.1,0,1.9,0.9,1.9,1.9V249z"/>
	<path class="st4" d="M-237.3,249c0,1.1-0.9,1.9-1.9,1.9h-4.8c-1.1,0-1.9-0.9-1.9-1.9v-4.8c0-1.1,0.9-1.9,1.9-1.9h4.8
		c1.1,0,1.9,0.9,1.9,1.9V249z"/>
	<path class="st4" d="M-221.2,249c0,1.1-0.9,1.9-1.9,1.9h-4.8c-1.1,0-1.9-0.9-1.9-1.9v-4.8c0-1.1,0.9-1.9,1.9-1.9h4.8
		c1.1,0,1.9,0.9,1.9,1.9V249z"/>
	<path class="st4" d="M-205.3,249c0,1.1-0.9,1.9-1.9,1.9h-4.8c-1.1,0-1.9-0.9-1.9-1.9v-4.8c0-1.1,0.9-1.9,1.9-1.9h4.8
		c1.1,0,1.9,0.9,1.9,1.9V249z"/>
	<path class="st4" d="M-189.3,249c0,1.1-0.9,1.9-1.9,1.9h-4.8c-1.1,0-1.9-0.9-1.9-1.9v-4.8c0-1.1,0.9-1.9,1.9-1.9h4.8
		c1.1,0,1.9,0.9,1.9,1.9V249z"/>
	<path class="st4" d="M-173.3,249c0,1.1-0.9,1.9-1.9,1.9h-4.8c-1.1,0-1.9-0.9-1.9-1.9v-4.8c0-1.1,0.9-1.9,1.9-1.9h4.8
		c1.1,0,1.9,0.9,1.9,1.9V249z"/>
	<path class="st4" d="M-285.1,263.7c0,1.1-0.9,1.9-1.9,1.9h-4.8c-1.1,0-1.9-0.9-1.9-1.9v-4.8c0-1.1,0.9-1.9,1.9-1.9h4.8
		c1.1,0,1.9,0.9,1.9,1.9V263.7z"/>
	<path class="st4" d="M-269.2,263.7c0,1.1-0.9,1.9-1.9,1.9h-4.8c-1.1,0-1.9-0.9-1.9-1.9v-4.8c0-1.1,0.9-1.9,1.9-1.9h4.8
		c1.1,0,1.9,0.9,1.9,1.9V263.7z"/>
	<path class="st4" d="M-253.2,263.7c0,1.1-0.9,1.9-1.9,1.9h-4.8c-1.1,0-1.9-0.9-1.9-1.9v-4.8c0-1.1,0.9-1.9,1.9-1.9h4.8
		c1.1,0,1.9,0.9,1.9,1.9V263.7z"/>
	<path class="st4" d="M-237.3,263.7c0,1.1-0.9,1.9-1.9,1.9h-4.8c-1.1,0-1.9-0.9-1.9-1.9v-4.8c0-1.1,0.9-1.9,1.9-1.9h4.8
		c1.1,0,1.9,0.9,1.9,1.9V263.7z"/>
	<path class="st4" d="M-221.2,263.7c0,1.1-0.9,1.9-1.9,1.9h-4.8c-1.1,0-1.9-0.9-1.9-1.9v-4.8c0-1.1,0.9-1.9,1.9-1.9h4.8
		c1.1,0,1.9,0.9,1.9,1.9V263.7z"/>
	<path class="st4" d="M-205.3,263.7c0,1.1-0.9,1.9-1.9,1.9h-4.8c-1.1,0-1.9-0.9-1.9-1.9v-4.8c0-1.1,0.9-1.9,1.9-1.9h4.8
		c1.1,0,1.9,0.9,1.9,1.9V263.7z"/>
	<path class="st4" d="M-189.3,263.7c0,1.1-0.9,1.9-1.9,1.9h-4.8c-1.1,0-1.9-0.9-1.9-1.9v-4.8c0-1.1,0.9-1.9,1.9-1.9h4.8
		c1.1,0,1.9,0.9,1.9,1.9V263.7z"/>
	<path class="st4" d="M-173.3,263.7c0,1.1-0.9,1.9-1.9,1.9h-4.8c-1.1,0-1.9-0.9-1.9-1.9v-4.8c0-1.1,0.9-1.9,1.9-1.9h4.8
		c1.1,0,1.9,0.9,1.9,1.9V263.7z"/>
	<path class="st4" d="M-285.1,278.3c0,1.1-0.9,1.9-1.9,1.9h-4.8c-1.1,0-1.9-0.9-1.9-1.9v-4.8c0-1.1,0.9-1.9,1.9-1.9h4.8
		c1.1,0,1.9,0.9,1.9,1.9V278.3z"/>
	<path class="st4" d="M-269.2,278.3c0,1.1-0.9,1.9-1.9,1.9h-4.8c-1.1,0-1.9-0.9-1.9-1.9v-4.8c0-1.1,0.9-1.9,1.9-1.9h4.8
		c1.1,0,1.9,0.9,1.9,1.9V278.3z"/>
	<path class="st4" d="M-253.2,278.3c0,1.1-0.9,1.9-1.9,1.9h-4.8c-1.1,0-1.9-0.9-1.9-1.9v-4.8c0-1.1,0.9-1.9,1.9-1.9h4.8
		c1.1,0,1.9,0.9,1.9,1.9V278.3z"/>
	<path class="st4" d="M-237.3,278.3c0,1.1-0.9,1.9-1.9,1.9h-4.8c-1.1,0-1.9-0.9-1.9-1.9v-4.8c0-1.1,0.9-1.9,1.9-1.9h4.8
		c1.1,0,1.9,0.9,1.9,1.9V278.3z"/>
	<path class="st4" d="M-221.2,278.3c0,1.1-0.9,1.9-1.9,1.9h-4.8c-1.1,0-1.9-0.9-1.9-1.9v-4.8c0-1.1,0.9-1.9,1.9-1.9h4.8
		c1.1,0,1.9,0.9,1.9,1.9V278.3z"/>
	<path class="st4" d="M-205.3,278.3c0,1.1-0.9,1.9-1.9,1.9h-4.8c-1.1,0-1.9-0.9-1.9-1.9v-4.8c0-1.1,0.9-1.9,1.9-1.9h4.8
		c1.1,0,1.9,0.9,1.9,1.9V278.3z"/>
	<path class="st4" d="M-205.3,278.3c0,1.1-0.9,1.9-1.9,1.9h-4.8c-1.1,0-1.9-0.9-1.9-1.9v-4.8c0-1.1,0.9-1.9,1.9-1.9h4.8
		c1.1,0,1.9,0.9,1.9,1.9V278.3z"/>
	<path class="st4" d="M-189.3,263.7c0,1.1-0.9,1.9-1.9,1.9h-4.8c-1.1,0-1.9-0.9-1.9-1.9v-4.8c0-1.1,0.9-1.9,1.9-1.9h4.8
		c1.1,0,1.9,0.9,1.9,1.9V263.7z"/>
	<path class="st4" d="M-181.8,244.1c0-1.1,0.9-1.9,1.9-1.9h4.8c1.1,0,1.9,0.9,1.9,1.9v4.8c0,1.1-0.9,1.9-1.9,1.9h-4.8
		c-1.1,0-1.9-0.9-1.9-1.9V244.1z"/>
	<path class="st4" d="M-181.8,258.8c0-1.1,0.9-1.9,1.9-1.9h4.8c1.1,0,1.9,0.9,1.9,1.9v4.8c0,1.1-0.9,1.9-1.9,1.9h-4.8
		c-1.1,0-1.9-0.9-1.9-1.9V258.8z"/>
	<path class="st4" d="M-180,250.9h4.8c1.1,0,1.9-0.9,1.9-1.9v-4.8c0-1.1-0.9-1.9-1.9-1.9h-4.8c-1.1,0-1.9,0.9-1.9,1.9v4.8
		C-181.8,250-181.1,250.9-180,250.9z"/>
	<path class="st4" d="M-191.1,256.9h-4.8c-1.1,0-1.9,0.9-1.9,1.9v4.8c0,1.1,0.9,1.9,1.9,1.9h4.8c1.1,0,1.9-0.9,1.9-1.9v-4.8
		C-189.3,257.8-190.1,256.9-191.1,256.9z"/>
	<path class="st4" d="M-180,265.5h4.8c1.1,0,1.9-0.9,1.9-1.9v-4.8c0-1.1-0.9-1.9-1.9-1.9h-4.8c-1.1,0-1.9,0.9-1.9,1.9v4.8
		C-181.8,264.6-181.1,265.5-180,265.5z"/>
	<path class="st4" d="M-221.2,278.3v-4.8c-2.2,2.2-4.4,4.4-6.6,6.6h4.8C-222.1,280.2-221.2,279.3-221.2,278.3z"/>
	<path class="st4" d="M-207.2,271.6h-4.8c-1.1,0-1.9,0.9-1.9,1.9v4.8c0,1.1,0.9,1.9,1.9,1.9h4.8c1.1,0,1.9-0.9,1.9-1.9v-4.8
		C-205.3,272.5-206.1,271.6-207.2,271.6z"/>
	<path class="st5" d="M-154.6,230.4c0-4.5-3.7-8.2-8.2-8.2H-180l-109.9,109.9h5.1h99.8h22.3c4.5,0,8.2-3.7,8.2-8.2
		c0,0,0.1-24.6,0.1-46.7C-154.5,261.1-154.6,230.4-154.6,230.4z"/>
	<path class="st6" d="M-226.9,327.5c0,0.9-0.8,1.7-1.7,1.7h-8.5c-0.9,0-1.7-0.8-1.7-1.7l0,0c0-0.9,0.8-1.7,1.7-1.7h8.5
		C-227.7,325.8-226.9,326.5-226.9,327.5L-226.9,327.5z"/>
</g>
<g>
	<g>
		<path class="st7" d="M-217,358.6c0-1.3-1.5-2.4-3.4-2.4h-14h-14c-1.9,0-3.4,1.1-3.4,2.4l-1.3,4.9c-0.5,2,0.9,4,2.9,4.1
			c0,0,0,0,0.1,0l15.7,0h15.7c0,0,0,0,0.1,0c2,0,3.5-2.1,2.9-4.1L-217,358.6z"/>
		<path class="st1" d="M-142.1,364.5l-15.2-27.2c0-0.8-1.5-1.5-3.4-1.5h-66.7h-2.4h-7.7h-69.1c-1.9,0-3.4,0.7-3.4,1.5l-15.6,27.2
			c-1.2,2.2,0.3,4.8,2.8,4.8h177.8C-142.4,369.4-140.9,366.7-142.1,364.5z M-218.7,367.5C-218.7,367.5-218.7,367.5-218.7,367.5
			l-15.8,0l-15.7,0c0,0,0,0-0.1,0c-2,0-3.5-2.1-2.9-4.1l1.3-4.9c0-1.3,1.5-2.4,3.4-2.4h14h14c1.9,0,3.4,1.1,3.4,2.4l1.3,4.9
			C-215.2,365.4-216.6,367.5-218.7,367.5z"/>
	</g>
	<path class="st7" d="M-263.6,344.4h-3.5c-0.6,0-1.1,0.5-1.2,1l-0.3,1.4c-0.2,0.8,0.4,1.5,1.2,1.5h3.6c0.6,0,1.1-0.5,1.2-1l0.2-1.4
		C-262.2,345.1-262.7,344.4-263.6,344.4z"/>
	<path class="st7" d="M-246.3,344.4h-3.6c-0.6,0-1.2,0.5-1.3,1.1l-0.2,1.4c-0.1,0.8,0.5,1.4,1.3,1.4h3.6c0.6,0,1.2-0.5,1.3-1.2
		l0.1-1.4C-245,345-245.6,344.4-246.3,344.4z"/>
	<path class="st7" d="M-262.5,338.1h-3.3c-0.6,0-1.1,0.5-1.2,1l-0.3,1.4c-0.2,0.8,0.4,1.5,1.2,1.5h3.4c0.6,0,1.1-0.5,1.2-1l0.2-1.4
		C-261.1,338.8-261.7,338.1-262.5,338.1z"/>
	<path class="st7" d="M-279.2,338.1h-3.3c-0.5,0-1.1,0.4-1.2,0.9l-0.4,1.4c-0.3,0.9,0.3,1.6,1.2,1.6h3.3c0.5,0,1.1-0.4,1.2-0.9
		l0.4-1.4C-277.8,338.9-278.3,338.1-279.2,338.1z"/>
	<path class="st7" d="M-254.2,338.1h-3.4c-0.6,0-1.2,0.5-1.2,1.1l-0.2,1.4c-0.1,0.8,0.4,1.5,1.2,1.5h3.4c0.6,0,1.2-0.5,1.2-1.1
		l0.2-1.4C-252.8,338.8-253.4,338.1-254.2,338.1z"/>
	<path class="st7" d="M-302.6,345.2l-0.5,1.4c-0.3,0.9,0.2,1.7,1.2,1.7h3.5c0.5,0,1-0.4,1.2-0.9l0.5-1.4c0.3-0.9-0.2-1.7-1.2-1.7
		h-3.4C-301.9,344.4-302.5,344.8-302.6,345.2z"/>
	<path class="st7" d="M-287.5,338.1h-3.3c-0.5,0-1,0.4-1.2,0.9l-0.5,1.4c-0.3,0.9,0.2,1.7,1.2,1.7h3.3c0.5,0,1.1-0.4,1.2-0.9
		l0.4-1.4C-286.1,338.9-286.6,338.1-287.5,338.1z"/>
	<path class="st7" d="M-311.2,345.2l-0.6,1.4c-0.4,1,0.1,1.7,1.2,1.7h3.4c0.5,0,1-0.4,1.2-0.8l0.5-1.4c0.4-0.9-0.2-1.7-1.2-1.7h-3.4
		C-310.5,344.4-311,344.7-311.2,345.2z"/>
	<path class="st7" d="M-304.3,354.6h3.6c0.5,0,1-0.4,1.2-0.9l0.5-1.4c0.3-0.9-0.2-1.7-1.2-1.7h-3.6c-0.5,0-1,0.4-1.2,0.8l-0.5,1.4
		C-305.8,353.8-305.3,354.6-304.3,354.6z"/>
	<path class="st7" d="M-313.2,354.6h3.6c0.5,0,1-0.4,1.2-0.8l0.5-1.4c0.4-0.9-0.2-1.7-1.2-1.7h-3.6c-0.5,0-1,0.3-1.2,0.8l-0.6,1.4
		C-314.8,353.8-314.3,354.6-313.2,354.6z"/>
	<path class="st7" d="M-304.3,338.1h-3.2c-0.5,0-1,0.3-1.2,0.8l-0.6,1.4c-0.4,1,0.1,1.7,1.2,1.7h3.2c0.5,0,1-0.4,1.2-0.8l0.5-1.4
		C-302.7,338.9-303.3,338.1-304.3,338.1z"/>
	<path class="st7" d="M-295.9,338.1h-3.2c-0.5,0-1,0.4-1.2,0.8l-0.5,1.4c-0.3,0.9,0.2,1.7,1.2,1.7h3.3c0.5,0,1-0.4,1.2-0.9l0.5-1.4
		C-294.4,338.9-294.9,338.1-295.9,338.1z"/>
	<path class="st7" d="M-270.8,338.1h-3.3c-0.5,0-1.1,0.4-1.2,1l-0.3,1.4c-0.2,0.9,0.3,1.6,1.2,1.6h3.4c0.6,0,1.1-0.4,1.2-1l0.3-1.4
		C-269.4,338.8-270,338.1-270.8,338.1z"/>
	<path class="st7" d="M-177.6,340.5l-0.4-1.4c-0.1-0.5-0.7-0.9-1.2-0.9h-3.3c-0.9,0-1.4,0.7-1.2,1.5l0.3,1.4c0.1,0.5,0.7,1,1.2,1
		h3.3C-177.9,342.1-177.3,341.4-177.6,340.5z"/>
	<path class="st7" d="M-215.4,348.3h3.6c0.8,0,1.3-0.6,1.3-1.4l-0.1-1.4c-0.1-0.6-0.6-1.1-1.3-1.1h-3.6c-0.7,0-1.3,0.6-1.3,1.3
		l0.1,1.4C-216.6,347.8-216,348.3-215.4,348.3z"/>
	<path class="st7" d="M-211.1,340.7l-0.1-1.4c-0.1-0.6-0.6-1.1-1.3-1.1h-3.4c-0.7,0-1.3,0.6-1.3,1.3l0.1,1.4c0,0.7,0.6,1.2,1.3,1.2
		h3.4C-211.6,342.1-211,341.5-211.1,340.7z"/>
	<path class="st7" d="M-224,354.6h3.8c0.7,0,1.3-0.6,1.3-1.3l-0.1-1.4c0-0.7-0.6-1.2-1.3-1.2h-3.8c-0.7,0-1.3,0.6-1.3,1.3l0,1.4
		C-225.2,354-224.6,354.6-224,354.6z"/>
	<path class="st7" d="M-160.8,340.4l-0.5-1.4c-0.2-0.5-0.7-0.8-1.2-0.8h-3.2c-0.9,0-1.5,0.7-1.2,1.6l0.5,1.4
		c0.2,0.5,0.7,0.9,1.2,0.9h3.3C-161,342.1-160.5,341.3-160.8,340.4z"/>
	<path class="st7" d="M-169.2,340.5l-0.4-1.4c-0.1-0.5-0.7-0.9-1.2-0.9h-3.3c-0.9,0-1.5,0.7-1.2,1.6l0.4,1.4
		c0.1,0.5,0.7,0.9,1.2,0.9h3.3C-169.5,342.1-168.9,341.4-169.2,340.5z"/>
	<path class="st7" d="M-219.5,340.8l-0.1-1.4c0-0.7-0.6-1.2-1.3-1.2h-3.4c-0.7,0-1.3,0.6-1.3,1.3l0,1.4c0,0.7,0.6,1.2,1.3,1.2h3.4
		C-220,342.1-219.4,341.5-219.5,340.8z"/>
	<path class="st7" d="M-237.5,338.1h-3.4c-0.6,0-1.2,0.5-1.3,1.2l-0.1,1.4c-0.1,0.7,0.5,1.3,1.3,1.3h3.4c0.7,0,1.2-0.5,1.3-1.2
		l0.1-1.4C-236.2,338.7-236.7,338.1-237.5,338.1z"/>
	<path class="st7" d="M-237.7,344.4h-3.6c-0.6,0-1.2,0.5-1.3,1.2l-0.1,1.4c-0.1,0.7,0.5,1.3,1.3,1.3h3.6c0.7,0,1.2-0.5,1.3-1.2
		l0.1-1.4C-236.4,345-237,344.4-237.7,344.4z"/>
	<path class="st7" d="M-229.1,344.4h-3.6c-0.7,0-1.2,0.6-1.3,1.2l0,1.4c0,0.7,0.5,1.3,1.3,1.3h3.6c0.7,0,1.3-0.6,1.3-1.3l0-1.4
		C-227.9,345-228.4,344.4-229.1,344.4z"/>
	<path class="st7" d="M-224.1,348.3h3.6c0.7,0,1.3-0.6,1.3-1.3l-0.1-1.4c0-0.7-0.6-1.2-1.3-1.2h-3.6c-0.7,0-1.3,0.6-1.3,1.3l0,1.4
		C-225.3,347.8-224.7,348.3-224.1,348.3z"/>
	<path class="st7" d="M-245.8,338.1h-3.4c-0.6,0-1.2,0.5-1.3,1.1l-0.2,1.4c-0.1,0.8,0.5,1.4,1.3,1.4h3.4c0.6,0,1.2-0.5,1.3-1.2
		l0.1-1.4C-244.5,338.8-245.1,338.1-245.8,338.1z"/>
	<path class="st7" d="M-229.1,338.1h-3.4c-0.7,0-1.2,0.6-1.3,1.2l0,1.4c0,0.7,0.5,1.3,1.3,1.3h3.4c0.7,0,1.3-0.6,1.3-1.3l0-1.4
		C-227.9,338.7-228.4,338.1-229.1,338.1z"/>
	<path class="st7" d="M-254.9,344.4h-3.5c-0.6,0-1.2,0.5-1.2,1.1l-0.2,1.4c-0.1,0.8,0.4,1.5,1.2,1.5h3.6c0.6,0,1.2-0.5,1.2-1.1
		l0.2-1.4C-253.6,345-254.2,344.4-254.9,344.4z"/>
	<path class="st7" d="M-189.7,352.1l0.3,1.4c0.1,0.6,0.7,1,1.2,1h3.8c0.9,0,1.4-0.7,1.2-1.5l-0.3-1.4c-0.1-0.5-0.7-1-1.2-1h-3.7
		C-189.3,350.6-189.9,351.3-189.7,352.1z"/>
	<path class="st7" d="M-186.1,344.4h-3.5c-0.8,0-1.4,0.7-1.2,1.5l0.3,1.4c0.1,0.6,0.7,1,1.2,1h3.6c0.9,0,1.4-0.7,1.2-1.5l-0.3-1.4
		C-185,344.8-185.6,344.4-186.1,344.4z"/>
	<path class="st7" d="M-177.5,344.4h-3.5c-0.9,0-1.4,0.7-1.2,1.5l0.3,1.4c0.1,0.5,0.7,1,1.2,1h3.5c0.9,0,1.4-0.7,1.2-1.6l-0.4-1.4
		C-176.4,344.8-177,344.4-177.5,344.4z"/>
	<path class="st7" d="M-198.6,352.1l0.2,1.4c0.1,0.6,0.6,1.1,1.2,1.1h3.8c0.8,0,1.4-0.7,1.2-1.5l-0.2-1.4c-0.1-0.6-0.7-1-1.2-1h-3.7
		C-198.1,350.6-198.7,351.3-198.6,352.1z"/>
	<path class="st7" d="M-180.8,352.2l0.3,1.4c0.1,0.5,0.7,1,1.2,1h3.7c0.9,0,1.4-0.7,1.2-1.6l-0.4-1.4c-0.1-0.5-0.7-0.9-1.2-0.9h-3.7
		C-180.5,350.6-181,351.3-180.8,352.2z"/>
	<path class="st7" d="M-187.5,338.1h-3.3c-0.8,0-1.4,0.7-1.2,1.5l0.3,1.4c0.1,0.6,0.7,1,1.2,1h3.4c0.9,0,1.4-0.7,1.2-1.5l-0.3-1.4
		C-186.4,338.6-186.9,338.1-187.5,338.1z"/>
	<path class="st7" d="M-160.3,344.4h-3.4c-0.9,0-1.5,0.7-1.2,1.6l0.5,1.4c0.2,0.5,0.7,0.9,1.2,0.9h3.5c1,0,1.5-0.8,1.2-1.7l-0.5-1.4
		C-159.3,344.8-159.8,344.4-160.3,344.4z"/>
	<path class="st7" d="M-158.2,350.6h-3.6c-0.9,0-1.5,0.7-1.2,1.6l0.5,1.4c0.2,0.5,0.7,0.9,1.2,0.9h3.7c1,0,1.5-0.8,1.2-1.7l-0.5-1.4
		C-157.2,351-157.7,350.6-158.2,350.6z"/>
	<path class="st7" d="M-194.7,344.4h-3.5c-0.8,0-1.4,0.6-1.2,1.4l0.2,1.4c0.1,0.6,0.6,1.1,1.2,1.1h3.6c0.8,0,1.4-0.7,1.2-1.5
		l-0.2-1.4C-193.6,344.9-194.1,344.4-194.7,344.4z"/>
	<path class="st7" d="M-171.9,352.2l0.4,1.4c0.1,0.5,0.7,0.9,1.2,0.9h3.7c0.9,0,1.5-0.7,1.2-1.6l-0.4-1.4c-0.1-0.5-0.7-0.9-1.2-0.9
		h-3.7C-171.6,350.6-172.1,351.3-171.9,352.2z"/>
	<path class="st7" d="M-168.9,344.4h-3.5c-0.9,0-1.5,0.7-1.2,1.6l0.4,1.4c0.1,0.5,0.7,0.9,1.2,0.9h3.5c0.9,0,1.5-0.7,1.2-1.6
		l-0.4-1.4C-167.9,344.8-168.4,344.4-168.9,344.4z"/>
	<path class="st7" d="M-284.7,348.3h3.5c0.5,0,1.1-0.4,1.2-0.9l0.4-1.4c0.2-0.9-0.3-1.6-1.2-1.6h-3.5c-0.5,0-1.1,0.4-1.2,0.9
		l-0.4,1.4C-286.1,347.6-285.6,348.3-284.7,348.3z"/>
	<path class="st7" d="M-277.5,354.6h3.7c0.6,0,1.1-0.4,1.2-1l0.3-1.4c0.2-0.8-0.4-1.5-1.2-1.5h-3.7c-0.5,0-1.1,0.4-1.2,1l-0.3,1.4
		C-279,353.9-278.4,354.6-277.5,354.6z"/>
	<path class="st7" d="M-276,348.3h3.5c0.6,0,1.1-0.4,1.2-1l0.3-1.4c0.2-0.8-0.4-1.5-1.2-1.5h-3.5c-0.5,0-1.1,0.4-1.2,1l-0.3,1.4
		C-277.5,347.6-276.9,348.3-276,348.3z"/>
	<path class="st7" d="M-195.8,338.1h-3.3c-0.8,0-1.4,0.6-1.2,1.4l0.2,1.4c0.1,0.6,0.6,1.1,1.2,1.1h3.4c0.8,0,1.4-0.7,1.2-1.5
		l-0.2-1.4C-194.7,338.6-195.2,338.1-195.8,338.1z"/>
	<path class="st7" d="M-245.8,354.6h2.6h6.4h2.6h5.1c0.7,0,1.3-0.6,1.3-1.3l0-1.4c0-0.7-0.6-1.3-1.3-1.3h-5h-2.6h-6.2h-2.6h-6.2
		h-2.6h-6.2h-7.8c-0.6,0-1.1,0.5-1.2,1l-0.3,1.4c-0.2,0.8,0.4,1.5,1.2,1.5h7.5h6.4h2.6H-245.8z"/>
	<path class="st7" d="M-294.1,345.3l-0.5,1.4c-0.3,0.9,0.2,1.7,1.2,1.7h3.5c0.5,0,1.1-0.4,1.2-0.9l0.4-1.4c0.3-0.9-0.3-1.6-1.2-1.6
		h-3.4C-293.4,344.4-293.9,344.8-294.1,345.3z"/>
	<path class="st7" d="M-286.5,354.6h3.7c0.5,0,1.1-0.4,1.2-0.9l0.4-1.4c0.2-0.9-0.3-1.6-1.2-1.6h-3.7c-0.5,0-1.1,0.4-1.2,0.9
		l-0.4,1.4C-287.9,353.9-287.4,354.6-286.5,354.6z"/>
	<path class="st7" d="M-207.5,352l0.1,1.4c0.1,0.6,0.6,1.1,1.3,1.1h3.8c0.8,0,1.4-0.6,1.2-1.4l-0.2-1.4c-0.1-0.6-0.6-1.1-1.2-1.1
		h-3.7C-207,350.6-207.6,351.3-207.5,352z"/>
	<path class="st7" d="M-203.3,344.4h-3.6c-0.8,0-1.3,0.6-1.3,1.4l0.1,1.4c0.1,0.6,0.6,1.1,1.3,1.1h3.6c0.8,0,1.4-0.6,1.2-1.4
		l-0.2-1.4C-202.1,344.9-202.7,344.4-203.3,344.4z"/>
	<path class="st7" d="M-204.1,338.1h-3.4c-0.8,0-1.3,0.6-1.3,1.4l0.1,1.4c0.1,0.6,0.6,1.1,1.3,1.1h3.4c0.8,0,1.4-0.6,1.2-1.4
		l-0.2-1.4C-203,338.6-203.5,338.1-204.1,338.1z"/>
	<path class="st7" d="M-295.4,354.6h3.7c0.5,0,1.1-0.4,1.2-0.9l0.4-1.4c0.3-0.9-0.3-1.6-1.2-1.6h-3.6c-0.5,0-1,0.4-1.2,0.9l-0.5,1.4
		C-296.9,353.8-296.3,354.6-295.4,354.6z"/>
	<path class="st7" d="M-216.4,352l0.1,1.4c0,0.7,0.6,1.2,1.3,1.2h3.8c0.8,0,1.3-0.6,1.3-1.4l-0.1-1.4c-0.1-0.6-0.6-1.1-1.3-1.1h-3.8
		C-215.8,350.6-216.4,351.2-216.4,352z"/>
</g>
</svg>
