<svg id="Layer_1" xmlns="http://www.w3.org/2000/svg" viewBox="0 0 187 164"><style>.st0{fill:#515254}.st1{fill:#1b75bb}.st2{fill:#26a9e0}.st3{fill:#231f20}.st4{opacity:.2}.st5{fill:#717275}</style><path class="st0" d="M126.3 129.1c0 2.3-1.9 4.2-4.2 4.2h-56c-2.3 0-4.2-1.9-4.2-4.2V35.4c0-2.3 1.9-4.2 4.2-4.2h56c2.3 0 4.2 1.9 4.2 4.2v93.7z"/><path class="st1" d="M123.3 122.6c0 1.2-.9 2.1-2.1 2.1H67.1c-1.2 0-2.1-.9-2.1-2.1V41c0-1.2.9-2.1 2.1-2.1h54.1c1.2 0 2.1.9 2.1 2.1v81.6z"/><path class="st2" d="M79.8 51.9c0 1-.8 1.7-1.7 1.7h-4.5c-1 0-1.7-.8-1.7-1.7v-4.5c0-1 .8-1.7 1.7-1.7H78c1 0 1.7.8 1.7 1.7v4.5zM115.6 51.9c0 1-.8 1.7-1.7 1.7h-4.5c-1 0-1.7-.8-1.7-1.7v-4.5c0-1 .8-1.7 1.7-1.7h4.5c1 0 1.7.8 1.7 1.7v4.5zM103.6 51.9c0 1-.8 1.7-1.7 1.7h-4.5c-1 0-1.7-.8-1.7-1.7v-4.5c0-1 .8-1.7 1.7-1.7h4.5c1 0 1.7.8 1.7 1.7v4.5zM91.7 51.9c0 1-.8 1.7-1.7 1.7h-4.5c-1 0-1.7-.8-1.7-1.7v-4.5c0-1 .8-1.7 1.7-1.7H90c1 0 1.7.8 1.7 1.7v4.5zM79.8 65.1c0 1-.8 1.7-1.7 1.7h-4.5c-1 0-1.7-.8-1.7-1.7v-4.5c0-1 .8-1.7 1.7-1.7H78c1 0 1.7.8 1.7 1.7v4.5zM115.6 65.1c0 1-.8 1.7-1.7 1.7h-4.5c-1 0-1.7-.8-1.7-1.7v-4.5c0-1 .8-1.7 1.7-1.7h4.5c1 0 1.7.8 1.7 1.7v4.5zM103.6 65.1c0 1-.8 1.7-1.7 1.7h-4.5c-1 0-1.7-.8-1.7-1.7v-4.5c0-1 .8-1.7 1.7-1.7h4.5c1 0 1.7.8 1.7 1.7v4.5zM91.7 65.1c0 1-.8 1.7-1.7 1.7h-4.5c-1 0-1.7-.8-1.7-1.7v-4.5c0-1 .8-1.7 1.7-1.7H90c1 0 1.7.8 1.7 1.7v4.5zM79.8 78.3c0 1-.8 1.7-1.7 1.7h-4.5c-1 0-1.7-.8-1.7-1.7v-4.5c0-1 .8-1.7 1.7-1.7H78c1 0 1.7.8 1.7 1.7v4.5zM115.6 78.3c0 1-.8 1.7-1.7 1.7h-4.5c-1 0-1.7-.8-1.7-1.7v-4.5c0-1 .8-1.7 1.7-1.7h4.5c1 0 1.7.8 1.7 1.7v4.5zM103.6 78.3c0 1-.8 1.7-1.7 1.7h-4.5c-1 0-1.7-.8-1.7-1.7v-4.5c0-1 .8-1.7 1.7-1.7h4.5c1 0 1.7.8 1.7 1.7v4.5zM91.7 78.3c0 1-.8 1.7-1.7 1.7h-4.5c-1 0-1.7-.8-1.7-1.7v-4.5c0-1 .8-1.7 1.7-1.7H90c1 0 1.7.8 1.7 1.7v4.5zM79.8 91.5c0 1-.8 1.7-1.7 1.7h-4.5c-1 0-1.7-.8-1.7-1.7V87c0-1 .8-1.7 1.7-1.7H78c1 0 1.7.8 1.7 1.7v4.5zM103.6 91.5c0 1-.8 1.7-1.7 1.7h-4.5c-1 0-1.7-.8-1.7-1.7V87c0-1 .8-1.7 1.7-1.7h4.5c1 0 1.7.8 1.7 1.7v4.5zM91.7 91.5c0 1-.8 1.7-1.7 1.7h-4.5c-1 0-1.7-.8-1.7-1.7V87c0-1 .8-1.7 1.7-1.7H90c1 0 1.7.8 1.7 1.7v4.5z"/><circle class="st3" cx="104.9" cy="35.2" r="1.3"/><circle class="st3" cx="117.1" cy="35.2" r="1.3"/><path d="M66.2 133.3h56c2.3 0 4.2-1.9 4.2-4.2V54.4L62 118.7v10.4c0 2.3 1.9 4.2 4.2 4.2z" class="st4"/><path class="st5" d="M100.1 129.2c0 .9-.7 1.7-1.7 1.7h-8.6c-.9 0-1.7-.7-1.7-1.7 0-.9.7-1.7 1.7-1.7h8.6c1 0 1.7.8 1.7 1.7z"/></svg>